<svg xmlns="http://www.w3.org/2000/svg" width="14" height="15" viewBox="0 0 14 15" fill="none">
<path d="M6.9987 5.75C6.53457 5.75 6.08945 5.93437 5.76126 6.26256C5.43307 6.59075 5.2487 7.03587 5.2487 7.5C5.2487 7.96413 5.43307 8.40925 5.76126 8.73744C6.08945 9.06563 6.53457 9.25 6.9987 9.25C7.46283 9.25 7.90795 9.06563 8.23614 8.73744C8.56432 8.40925 8.7487 7.96413 8.7487 7.5C8.7487 7.03587 8.56432 6.59075 8.23614 6.26256C7.90795 5.93437 7.46283 5.75 6.9987 5.75ZM6.9987 10.4167C6.22515 10.4167 5.48328 10.1094 4.9363 9.56239C4.38932 9.01541 4.08203 8.27355 4.08203 7.5C4.08203 6.72645 4.38932 5.98459 4.9363 5.43761C5.48328 4.89062 6.22515 4.58333 6.9987 4.58333C7.77225 4.58333 8.51411 4.89062 9.06109 5.43761C9.60807 5.98459 9.91537 6.72645 9.91537 7.5C9.91537 8.27355 9.60807 9.01541 9.06109 9.56239C8.51411 10.1094 7.77225 10.4167 6.9987 10.4167ZM6.9987 3.125C4.08203 3.125 1.5912 4.93917 0.582031 7.5C1.5912 10.0608 4.08203 11.875 6.9987 11.875C9.91537 11.875 12.4062 10.0608 13.4154 7.5C12.4062 4.93917 9.91537 3.125 6.9987 3.125Z" fill="#A1A8AF"/>
</svg>